<svg>
  <symbol xmlns="http://www.w3.org/2000/svg" viewBox="0 0 80 80" id="Light">
    <path d="M40 58c9.941 0 18-8.059 18-18s-8.059-18-18-18-18 8.059-18 18 8.059 18 18 18Z"></path>
    <mask id="a" maskUnits="userSpaceOnUse" x="2" y="2" width="76" height="76">
      <path d="M2 2h76v76H2z"></path>
      <path d="M40 5v9.546ZM20.63 62.273l-6.084 7.353Zm44.544-50.91-6.083 7.354ZM40 65.455V75Zm19.09-3.181 6.75 6.748Zm-47.726-50.91 6.748 6.75ZM65.454 40H75ZM5 40h9.546Z"></path>
    </mask>
    <path d="M40 5v9.546ZM20.63 62.273l-6.084 7.353Zm44.544-50.91-6.083 7.354ZM40 65.455V75Zm19.09-3.181 6.75 6.748Zm-47.726-50.91 6.748 6.75ZM65.454 40H75ZM5 40h9.546Z" fill="#D9D9D9"></path>
    <path d="M43 5a3 3 0 1 0-6 0h6Zm-6 9.546a3 3 0 0 0 6 0h-6Zm-14.06 49.64a3 3 0 1 0-4.622-3.826l4.622 3.825Zm-10.706 3.527a3 3 0 0 0 4.623 3.825l-4.623-3.825Zm55.252-54.437a3 3 0 1 0-4.623-3.825l4.623 3.825Zm-10.707 3.528a3 3 0 0 0 4.623 3.825l-4.623-3.825ZM43 65.454a3 3 0 0 0-6 0h6ZM37 75a3 3 0 1 0 6 0h-6Zm24.212-14.849a3 3 0 1 0-4.242 4.243l4.242-4.243Zm2.506 10.992a3 3 0 1 0 4.243-4.243l-4.243 4.243Zm-50.233-61.9a3 3 0 0 0-4.243 4.242l4.243-4.243Zm2.506 10.99a3 3 0 1 0 4.243-4.242l-4.243 4.243ZM65.454 37a3 3 0 0 0 0 6v-6ZM75 43a3 3 0 1 0 0-6v6ZM5 37a3 3 0 1 0 0 6v-6Zm9.546 6a3 3 0 0 0 0-6v6ZM37 5v9.546h6V5h-6ZM18.318 60.36l-6.084 7.353 4.623 3.825 6.084-7.353-4.623-3.825ZM62.863 9.451l-6.084 7.353 4.623 3.825 6.084-7.353-4.623-3.825ZM37 65.454V75h6v-9.546h-6Zm19.97-1.06 6.748 6.749 4.243-4.243-6.749-6.749-4.242 4.243ZM9.242 13.485l6.749 6.749 4.243-4.243-6.749-6.749-4.243 4.243ZM65.454 43H75v-6h-9.546v6ZM5 43h9.546v-6H5v6Z" fill="#000" mask="url(#a)"></path>
  </symbol>
  <symbol xmlns="http://www.w3.org/2000/svg" viewBox="0 0 80 80" id="Auto">
    <path d="M40 77c20.434 0 37-16.566 37-37S60.434 3 40 3 3 19.566 3 40s16.566 37 37 37Zm0-7c16.569 0 30-13.431 30-30 0-16.569-13.431-30-30-30v60Z"></path>
  </symbol>
  <symbol xmlns="http://www.w3.org/2000/svg" viewBox="0 0 80 80" id="Dark">
    <path d="M74.694 49.21A32.387 32.387 0 0 1 61.5 52C43.55 52 29 37.45 29 19.5a32.353 32.353 0 0 1 4.18-15.955C16.032 6.54 3 21.497 3 39.5 3 59.658 19.342 76 39.5 76c16.796 0 30.942-11.345 35.194-26.79Z"></path>
  </symbol>
  <symbol xmlns="http://www.w3.org/2000/svg" viewBox="0 0 12 10" id="Arrow-back">
    <path d="M.719 4.297 5.109 0l1.438 1.406-2.594 2.516H12v2.156H3.969l2.578 2.516L5.109 10 0 5l.719-.703Z"></path>
  </symbol>
</svg>
