<svg xmlns="http://www.w3.org/2000/svg" fill="none" viewBox="0 0 2049 2049"><g clip-path="url(#a)"><circle cx="1024.5" cy="1024.5" r="1024.5" fill="#000" transform="rotate(90 1024.5 1024.5)"/><path fill="#fff" d="m1336.5 1213.57 296-523.001 7.5-13.069h134.5l-39.5 68.569-296 523.501s-52.5 108.39-182 103c-129.5-5.4-179-103-179-103L826 828.577s-24-32.958-57.5-32c-33.5.957-53.5 34.5-53.5 34.5L414.5 1359.57l-8 13.43H272l41-71.43 298.5-524.498s46.5-96 153.5-99 159.5 88.005 159.5 88.005l256 447.493s17 37.56 73.5 40c56.5 2.43 82.5-40 82.5-40Z"/></g><defs><clipPath id="a"><path fill="#fff" d="M2049 0v2049H0V0z"/></clipPath></defs></svg>